<?xml version="1.0" encoding="UTF-8" standalone="no"?>
<!DOCTYPE svg PUBLIC "-//W3C//DTD SVG 1.1//EN"
 "http://www.w3.org/Graphics/SVG/1.1/DTD/svg11.dtd">
<!-- Generated by graphviz version 2.38.0 (20140413.2041)
 -->
<!-- Title: G Pages: 1 -->
<svg width="4653pt" height="1572pt"
 viewBox="0.00 0.00 4653.43 1572.00" xmlns="http://www.w3.org/2000/svg" xmlns:xlink="http://www.w3.org/1999/xlink">
<g id="graph0" class="graph" transform="scale(1 1) rotate(0) translate(4 1568)">
<title>G</title>
<polygon fill="white" stroke="none" points="-4,4 -4,-1568 4649.43,-1568 4649.43,4 -4,4"/>
<g id="clust1" class="cluster"><title>cluster_4</title>
<polygon fill="none" stroke="red" stroke-width="3" points="3250.43,-8 3250.43,-1091 4583.43,-1091 4583.43,-8 3250.43,-8"/>
<text text-anchor="middle" x="3916.93" y="-1075.8" font-family="Times New Roman,serif" font-size="14.00">gl</text>
</g>
<g id="clust2" class="cluster"><title>cluster_5</title>
<polygon fill="none" stroke="red" stroke-width="3" points="3891.43,-260 3891.43,-587 4575.43,-587 4575.43,-260 3891.43,-260"/>
<text text-anchor="middle" x="4233.43" y="-571.8" font-family="Times New Roman,serif" font-size="14.00">gl.buffer</text>
</g>
<g id="clust3" class="cluster"><title>cluster_14</title>
<polygon fill="none" stroke="red" stroke-width="3" points="3582.43,-260 3582.43,-335 3883.43,-335 3883.43,-260 3582.43,-260"/>
<text text-anchor="middle" x="3732.93" y="-319.8" font-family="Times New Roman,serif" font-size="14.00">gl.geometry</text>
</g>
<g id="clust4" class="cluster"><title>cluster_23</title>
<polygon fill="none" stroke="red" stroke-width="3" points="3638.43,-764 3638.43,-839 3872.43,-839 3872.43,-764 3638.43,-764"/>
<text text-anchor="middle" x="3755.43" y="-823.8" font-family="Times New Roman,serif" font-size="14.00">gl.skins</text>
</g>
<g id="clust5" class="cluster"><title>cluster_26</title>
<polygon fill="none" stroke="red" stroke-width="3" points="850.43,-512 850.43,-1374 2610.43,-1374 2610.43,-512 850.43,-512"/>
<text text-anchor="middle" x="1730.43" y="-1358.8" font-family="Times New Roman,serif" font-size="14.00">globe_3d</text>
</g>
<g id="clust6" class="cluster"><title>cluster_30</title>
<polygon fill="none" stroke="red" stroke-width="3" points="1122.43,-1268 1122.43,-1343 1430.43,-1343 1430.43,-1268 1122.43,-1268"/>
<text text-anchor="middle" x="1276.43" y="-1327.8" font-family="Times New Roman,serif" font-size="14.00">globe_3d.culler</text>
</g>
<g id="clust7" class="cluster"><title>cluster_32</title>
<polygon fill="none" stroke="red" stroke-width="3" points="1986.43,-1016 1986.43,-1091 2442.43,-1091 2442.43,-1016 1986.43,-1016"/>
<text text-anchor="middle" x="2214.43" y="-1075.8" font-family="Times New Roman,serif" font-size="14.00">globe_3d.impostor</text>
</g>
<g id="clust8" class="cluster"><title>cluster_44</title>
<polygon fill="none" stroke="red" stroke-width="3" points="2126.43,-1268 2126.43,-1343 2602.43,-1343 2602.43,-1268 2126.43,-1268"/>
<text text-anchor="middle" x="2364.43" y="-1327.8" font-family="Times New Roman,serif" font-size="14.00">globe_3d.tri_mesh</text>
</g>
<g id="clust9" class="cluster"><title>cluster_51</title>
<polygon fill="none" stroke="red" stroke-width="3" points="412.43,-1016 412.43,-1343 546.43,-1343 546.43,-1016 412.43,-1016"/>
<text text-anchor="middle" x="479.43" y="-1327.8" font-family="Times New Roman,serif" font-size="14.00">glut</text>
</g>
<!-- node_1 -->
<g id="node1" class="node"><title>node_1</title>
<ellipse fill="none" stroke="black" cx="217.43" cy="-1042" rx="33.2948" ry="18"/>
<text text-anchor="middle" x="217.43" y="-1038.3" font-family="Times New Roman,serif" font-size="14.00">actors</text>
</g>
<!-- node_2 -->
<g id="node2" class="node"><title>node_2</title>
<ellipse fill="none" stroke="black" cx="316.43" cy="-790" rx="60.3893" ry="18"/>
<text text-anchor="middle" x="316.43" y="-786.3" font-family="Times New Roman,serif" font-size="14.00">game_control</text>
</g>
<!-- node_1&#45;&gt;node_2 -->
<g id="edge1" class="edge"><title>node_1&#45;&gt;node_2</title>
<path fill="none" stroke="black" d="M224.08,-1024.21C240.947,-981.615 285.506,-869.092 305.931,-817.512"/>
<polygon fill="black" stroke="black" points="309.252,-818.634 309.679,-808.048 302.743,-816.056 309.252,-818.634"/>
</g>
<!-- node_19 -->
<g id="node16" class="node"><title>node_19</title>
<ellipse fill="none" stroke="black" cx="3395.43" cy="-34" rx="37.0935" ry="18"/>
<text text-anchor="middle" x="3395.43" y="-30.3" font-family="Times New Roman,serif" font-size="14.00">gl.math</text>
</g>
<!-- node_1&#45;&gt;node_19 -->
<g id="edge2" class="edge"><title>node_1&#45;&gt;node_19</title>
<path fill="none" stroke="black" d="M213.368,-1024.08C203.56,-980.222 181.188,-859.628 206.43,-764 272.163,-514.977 274.72,-397.606 492.43,-260 1030.53,80.1091 2727.29,-186.776 3349.43,-52 3352.41,-51.3539 3355.46,-50.5554 3358.5,-49.66"/>
<polygon fill="black" stroke="black" points="3359.65,-52.9654 3368.08,-46.5372 3357.48,-46.3103 3359.65,-52.9654"/>
</g>
<!-- node_36 -->
<g id="node29" class="node"><title>node_36</title>
<ellipse fill="none" stroke="black" cx="1456.43" cy="-538" rx="64.9885" ry="18"/>
<text text-anchor="middle" x="1456.43" y="-534.3" font-family="Times New Roman,serif" font-size="14.00">globe_3d.math</text>
</g>
<!-- node_1&#45;&gt;node_36 -->
<g id="edge3" class="edge"><title>node_1&#45;&gt;node_36</title>
<path fill="none" stroke="black" d="M213.144,-1023.92C202.204,-975.854 178.716,-838.154 247.43,-764 402.661,-596.479 1142.83,-551.813 1381.83,-541.659"/>
<polygon fill="black" stroke="black" points="1382.31,-545.142 1392.16,-541.228 1382.02,-538.148 1382.31,-545.142"/>
</g>
<!-- node_11 -->
<g id="node9" class="node"><title>node_11</title>
<ellipse fill="none" stroke="black" cx="3299.43" cy="-34" rx="40.8928" ry="18"/>
<text text-anchor="middle" x="3299.43" y="-30.3" font-family="Times New Roman,serif" font-size="14.00">gl.errors</text>
</g>
<!-- node_2&#45;&gt;node_11 -->
<g id="edge4" class="edge"><title>node_2&#45;&gt;node_11</title>
<path fill="none" stroke="black" d="M312.291,-771.956C295.433,-697.924 239.755,-401.641 390.43,-260 607.253,-56.1779 2877.15,-36.9606 3248.25,-35.1792"/>
<polygon fill="black" stroke="black" points="3240.51,-38.8464 3250.43,-35.1325 3240.36,-31.848 3240.51,-38.8464"/>
</g>
<!-- node_52 -->
<g id="node43" class="node"><title>node_52</title>
<ellipse fill="none" stroke="black" cx="478.43" cy="-1294" rx="53.8905" ry="18"/>
<text text-anchor="middle" x="478.43" y="-1290.3" font-family="Times New Roman,serif" font-size="14.00">glut.devices</text>
</g>
<!-- node_2&#45;&gt;node_52 -->
<g id="edge5" class="edge"><title>node_2&#45;&gt;node_52</title>
<path fill="none" stroke="black" d="M314.799,-808.216C310.979,-855.17 304.317,-988.773 340.43,-1091 365.88,-1163.04 423.707,-1233.58 455.84,-1269.16"/>
<polygon fill="black" stroke="black" points="453.332,-1271.6 462.665,-1276.61 458.496,-1266.87 453.332,-1271.6"/>
</g>
<!-- node_3 -->
<g id="node3" class="node"><title>node_3</title>
<polygon fill="none" stroke="blue" stroke-width="2" points="4645.43,-52 4642.43,-56 4621.43,-56 4618.43,-52 4591.43,-52 4591.43,-16 4645.43,-16 4645.43,-52"/>
<text text-anchor="middle" x="4618.43" y="-30.3" font-family="Times New Roman,serif" font-size="14.00">gid</text>
</g>
<!-- node_6 -->
<g id="node4" class="node"><title>node_6</title>
<ellipse fill="none" stroke="black" cx="4093.43" cy="-286" rx="69.5877" ry="18"/>
<text text-anchor="middle" x="4093.43" y="-282.3" font-family="Times New Roman,serif" font-size="14.00">gl.buffer.general</text>
</g>
<!-- node_6&#45;&gt;node_11 -->
<g id="edge7" class="edge"><title>node_6&#45;&gt;node_11</title>
<path fill="none" stroke="black" d="M4050.12,-271.839C3935.5,-236.919 3614.81,-138.654 3349.43,-52 3346.48,-51.035 3343.43,-50.0275 3340.36,-49.0055"/>
<polygon fill="black" stroke="black" points="3341.19,-45.5931 3330.6,-45.727 3338.96,-52.2289 3341.19,-45.5931"/>
</g>
<!-- node_12 -->
<g id="node10" class="node"><title>node_12</title>
<ellipse fill="none" stroke="black" cx="3502.43" cy="-34" rx="51.9908" ry="18"/>
<text text-anchor="middle" x="3502.43" y="-30.3" font-family="Times New Roman,serif" font-size="14.00">gl.extended</text>
</g>
<!-- node_6&#45;&gt;node_12 -->
<g id="edge6" class="edge"><title>node_6&#45;&gt;node_12</title>
<path fill="none" stroke="black" d="M4034.95,-260.26C3915.64,-209.794 3646.79,-96.0669 3543.72,-52.4671"/>
<polygon fill="black" stroke="black" points="3544.81,-49.1276 3534.24,-48.4551 3542.08,-55.5745 3544.81,-49.1276"/>
</g>
<!-- node_7 -->
<g id="node5" class="node"><title>node_7</title>
<ellipse fill="none" stroke="black" cx="4348.43" cy="-538" rx="69.5877" ry="18"/>
<text text-anchor="middle" x="4348.43" y="-534.3" font-family="Times New Roman,serif" font-size="14.00">gl.buffer.indices</text>
</g>
<!-- node_7&#45;&gt;node_6 -->
<g id="edge8" class="edge"><title>node_7&#45;&gt;node_6</title>
<path fill="none" stroke="black" d="M4331.3,-520.209C4287.12,-476.889 4169.16,-361.24 4117.84,-310.931"/>
<polygon fill="black" stroke="black" points="4120.07,-308.22 4110.48,-303.718 4115.17,-313.218 4120.07,-308.22"/>
</g>
<!-- node_15 -->
<g id="node12" class="node"><title>node_15</title>
<ellipse fill="none" stroke="black" cx="3654.43" cy="-286" rx="63.8893" ry="18"/>
<text text-anchor="middle" x="3654.43" y="-282.3" font-family="Times New Roman,serif" font-size="14.00">gl.geometry.va</text>
</g>
<!-- node_7&#45;&gt;node_15 -->
<g id="edge9" class="edge"><title>node_7&#45;&gt;node_15</title>
<path fill="none" stroke="black" d="M4306.25,-523.474C4178.77,-482.567 3802.14,-361.559 3736.05,-338.552"/>
<polygon fill="black" stroke="black" points="3737.02,-335.181 3726.43,-335 3734.6,-341.748 3737.02,-335.181"/>
</g>
<!-- node_8 -->
<g id="node6" class="node"><title>node_8</title>
<ellipse fill="none" stroke="black" cx="4188.43" cy="-538" rx="72.5877" ry="18"/>
<text text-anchor="middle" x="4188.43" y="-534.3" font-family="Times New Roman,serif" font-size="14.00">gl.buffer.normals</text>
</g>
<!-- node_8&#45;&gt;node_6 -->
<g id="edge10" class="edge"><title>node_8&#45;&gt;node_6</title>
<path fill="none" stroke="black" d="M4181.9,-519.816C4165.59,-476.896 4122.98,-364.77 4103.46,-313.399"/>
<polygon fill="black" stroke="black" points="4106.7,-312.078 4099.88,-303.973 4100.16,-314.564 4106.7,-312.078"/>
</g>
<!-- node_8&#45;&gt;node_15 -->
<g id="edge11" class="edge"><title>node_8&#45;&gt;node_15</title>
<path fill="none" stroke="black" d="M4149.62,-522.703C4070.38,-492.948 3884.82,-420.391 3735.32,-339.824"/>
<polygon fill="black" stroke="black" points="3736.89,-336.693 3726.43,-335 3733.55,-342.846 3736.89,-336.693"/>
</g>
<!-- node_9 -->
<g id="node7" class="node"><title>node_9</title>
<ellipse fill="none" stroke="black" cx="3998.43" cy="-538" rx="98.5829" ry="18"/>
<text text-anchor="middle" x="3998.43" y="-534.3" font-family="Times New Roman,serif" font-size="14.00">gl.buffer.texture_coords</text>
</g>
<!-- node_9&#45;&gt;node_6 -->
<g id="edge12" class="edge"><title>node_9&#45;&gt;node_6</title>
<path fill="none" stroke="black" d="M4004.96,-519.816C4021.27,-476.896 4063.88,-364.77 4083.4,-313.399"/>
<polygon fill="black" stroke="black" points="4086.7,-314.564 4086.98,-303.973 4080.16,-312.078 4086.7,-314.564"/>
</g>
<!-- node_9&#45;&gt;node_15 -->
<g id="edge13" class="edge"><title>node_9&#45;&gt;node_15</title>
<path fill="none" stroke="black" d="M3975.59,-520.403C3926.06,-484.403 3806.89,-397.801 3728.47,-340.812"/>
<polygon fill="black" stroke="black" points="3730.22,-337.752 3720.07,-334.704 3726.1,-343.414 3730.22,-337.752"/>
</g>
<!-- node_25 -->
<g id="node21" class="node"><title>node_25</title>
<ellipse fill="none" stroke="black" cx="3694.43" cy="-538" rx="48.1917" ry="18"/>
<text text-anchor="middle" x="3694.43" y="-534.3" font-family="Times New Roman,serif" font-size="14.00">gl.textures</text>
</g>
<!-- node_9&#45;&gt;node_25 -->
<g id="edge14" class="edge"><title>node_9&#45;&gt;node_25</title>
<path fill="none" stroke="black" d="M3899.58,-538C3850.7,-538 3801.81,-538 3752.92,-538"/>
<polygon fill="black" stroke="black" points="3752.82,-534.5 3742.82,-538 3752.82,-541.5 3752.82,-534.5"/>
</g>
<!-- node_10 -->
<g id="node8" class="node"><title>node_10</title>
<ellipse fill="none" stroke="black" cx="4501.43" cy="-538" rx="65.7887" ry="18"/>
<text text-anchor="middle" x="4501.43" y="-534.3" font-family="Times New Roman,serif" font-size="14.00">gl.buffer.vertex</text>
</g>
<!-- node_10&#45;&gt;node_6 -->
<g id="edge15" class="edge"><title>node_10&#45;&gt;node_6</title>
<path fill="none" stroke="black" d="M4475.91,-521.361C4405.44,-478.182 4208.1,-357.265 4127.94,-308.144"/>
<polygon fill="black" stroke="black" points="4129.56,-305.034 4119.2,-302.793 4125.9,-311.002 4129.56,-305.034"/>
</g>
<!-- node_10&#45;&gt;node_15 -->
<g id="edge16" class="edge"><title>node_10&#45;&gt;node_15</title>
<path fill="none" stroke="black" d="M4462.82,-523.319C4451.48,-519.472 4439.01,-515.411 4427.43,-512 4122.51,-422.148 4022.29,-464.408 3735.83,-339.14"/>
<polygon fill="black" stroke="black" points="3736.99,-335.829 3726.43,-335 3734.17,-342.235 3736.99,-335.829"/>
</g>
<!-- node_50 -->
<g id="node42" class="node"><title>node_50</title>
<ellipse fill="none" stroke="black" cx="528.43" cy="-286" rx="27" ry="18"/>
<text text-anchor="middle" x="528.43" y="-282.3" font-family="Times New Roman,serif" font-size="14.00">glu</text>
</g>
<!-- node_11&#45;&gt;node_50 -->
<g id="edge17" class="edge"><title>node_11&#45;&gt;node_50</title>
<path fill="none" stroke="black" d="M3259.57,-38.4392C2945.02,-66.2158 868.288,-253.578 565.271,-281.518"/>
<polygon fill="black" stroke="black" points="564.881,-278.039 555.246,-282.444 565.525,-285.009 564.881,-278.039"/>
</g>
<!-- node_13 -->
<g id="node11" class="node"><title>node_13</title>
<ellipse fill="none" stroke="black" cx="3577.43" cy="-538" rx="51.1914" ry="18"/>
<text text-anchor="middle" x="3577.43" y="-534.3" font-family="Times New Roman,serif" font-size="14.00">gl.frustums</text>
</g>
<!-- node_13&#45;&gt;node_15 -->
<g id="edge18" class="edge"><title>node_13&#45;&gt;node_15</title>
<path fill="none" stroke="black" d="M3582.72,-519.816C3593.66,-484.305 3619.19,-401.415 3636.64,-344.761"/>
<polygon fill="black" stroke="black" points="3640.09,-345.443 3639.69,-334.856 3633.4,-343.383 3640.09,-345.443"/>
</g>
<!-- node_15&#45;&gt;node_19 -->
<g id="edge19" class="edge"><title>node_15&#45;&gt;node_19</title>
<path fill="none" stroke="black" d="M3628.77,-260.23C3578.41,-211.619 3467.33,-104.397 3418.84,-57.5951"/>
<polygon fill="black" stroke="black" points="3421.11,-54.9238 3411.49,-50.497 3416.25,-59.9603 3421.11,-54.9238"/>
</g>
<!-- node_20 -->
<g id="node17" class="node"><title>node_20</title>
<ellipse fill="none" stroke="black" cx="3309.43" cy="-286" rx="50.8918" ry="18"/>
<text text-anchor="middle" x="3309.43" y="-282.3" font-family="Times New Roman,serif" font-size="14.00">gl.primitive</text>
</g>
<!-- node_15&#45;&gt;node_20 -->
<g id="edge20" class="edge"><title>node_15&#45;&gt;node_20</title>
<path fill="none" stroke="black" d="M3650.41,-304.445C3642.53,-335.528 3621.81,-397.49 3577.43,-423.5 3501.13,-468.223 3453.7,-469.943 3378.43,-423.5 3339.87,-399.708 3322.12,-347.069 3314.52,-314.263"/>
<polygon fill="black" stroke="black" points="3317.92,-313.414 3312.4,-304.37 3311.08,-314.881 3317.92,-313.414"/>
</g>
<!-- node_16 -->
<g id="node13" class="node"><title>node_16</title>
<ellipse fill="none" stroke="black" cx="3805.43" cy="-286" rx="69.5877" ry="18"/>
<text text-anchor="middle" x="3805.43" y="-282.3" font-family="Times New Roman,serif" font-size="14.00">gl.geometry.vbo</text>
</g>
<!-- node_16&#45;&gt;node_7 -->
<g id="edge21" class="edge"><title>node_16&#45;&gt;node_7</title>
<path fill="none" stroke="black" d="M3830.85,-302.917C3846.83,-312.661 3868.03,-325.114 3887.43,-335 4035.53,-410.467 4218.06,-485.31 4302.09,-518.79"/>
<polygon fill="black" stroke="black" points="4301.02,-522.129 4311.6,-522.57 4303.6,-515.624 4301.02,-522.129"/>
</g>
<!-- node_16&#45;&gt;node_10 -->
<g id="edge22" class="edge"><title>node_16&#45;&gt;node_10</title>
<path fill="none" stroke="black" d="M3829.46,-302.904C3845.43,-313.007 3867.13,-325.855 3887.43,-335 4117.72,-438.715 4187.79,-432.247 4427.43,-512 4435.48,-514.678 4444.01,-517.539 4452.3,-520.334"/>
<polygon fill="black" stroke="black" points="4451.3,-523.69 4461.9,-523.57 4453.54,-517.057 4451.3,-523.69"/>
</g>
<!-- node_17 -->
<g id="node14" class="node"><title>node_17</title>
<ellipse fill="none" stroke="black" cx="3525.43" cy="-286" rx="27" ry="18"/>
<text text-anchor="middle" x="3525.43" y="-282.3" font-family="Times New Roman,serif" font-size="14.00">gl.io</text>
</g>
<!-- node_17&#45;&gt;node_3 -->
<g id="edge23" class="edge"><title>node_17&#45;&gt;node_3</title>
<path fill="none" stroke="black" d="M3545.85,-273.972C3555.51,-269.124 3567.33,-263.703 3578.43,-260 4009.59,-116.15 4155.56,-208.679 4581.77,-53.9422"/>
<polygon fill="black" stroke="black" points="4583.06,-57.1973 4591.25,-50.4765 4580.66,-50.6228 4583.06,-57.1973"/>
</g>
<!-- node_18 -->
<g id="node15" class="node"><title>node_18</title>
<ellipse fill="none" stroke="black" cx="3429.43" cy="-286" rx="51.1914" ry="18"/>
<text text-anchor="middle" x="3429.43" y="-282.3" font-family="Times New Roman,serif" font-size="14.00">gl.materials</text>
</g>
<!-- node_18&#45;&gt;node_19 -->
<g id="edge24" class="edge"><title>node_18&#45;&gt;node_19</title>
<path fill="none" stroke="black" d="M3427.09,-267.816C3421.28,-225.075 3406.13,-113.703 3399.11,-62.0442"/>
<polygon fill="black" stroke="black" points="3402.55,-61.4103 3397.74,-51.9732 3395.62,-62.3537 3402.55,-61.4103"/>
</g>
<!-- node_20&#45;&gt;node_12 -->
<g id="edge25" class="edge"><title>node_20&#45;&gt;node_12</title>
<path fill="none" stroke="black" d="M3322.39,-268.209C3355.63,-225.156 3444.02,-110.662 3483.23,-59.8681"/>
<polygon fill="black" stroke="black" points="3486.18,-61.7728 3489.52,-51.7183 3480.64,-57.4952 3486.18,-61.7728"/>
</g>
<!-- node_20&#45;&gt;node_15 -->
<g id="edge26" class="edge"><title>node_20&#45;&gt;node_15</title>
<path fill="none" stroke="black" d="M3312.4,-304.37C3318.52,-335.338 3335.7,-397.133 3378.43,-423.5 3453.7,-469.943 3501.13,-468.223 3577.43,-423.5 3606.79,-406.293 3625.79,-373.351 3637.58,-344.025"/>
<polygon fill="black" stroke="black" points="3640.86,-345.245 3641.15,-334.655 3634.32,-342.749 3640.86,-345.245"/>
</g>
<!-- node_21 -->
<g id="node18" class="node"><title>node_21</title>
<ellipse fill="none" stroke="black" cx="3359.43" cy="-1042" rx="61.1893" ry="18"/>
<text text-anchor="middle" x="3359.43" y="-1038.3" font-family="Times New Roman,serif" font-size="14.00">gl.simple_text</text>
</g>
<!-- node_22 -->
<g id="node19" class="node"><title>node_22</title>
<ellipse fill="none" stroke="black" cx="3524.43" cy="-1042" rx="85.5853" ry="18"/>
<text text-anchor="middle" x="3524.43" y="-1038.3" font-family="Times New Roman,serif" font-size="14.00">gl.skinned_geometry</text>
</g>
<!-- node_22&#45;&gt;node_15 -->
<g id="edge27" class="edge"><title>node_22&#45;&gt;node_15</title>
<path fill="none" stroke="black" d="M3532.52,-1023.96C3548.71,-989.51 3585.75,-908.89 3611.43,-839 3623.45,-806.274 3619.55,-795.532 3634.43,-764 3674.67,-678.715 3724.28,-677.307 3751.43,-587 3777.09,-501.644 3730.87,-403.501 3693.82,-343.369"/>
<polygon fill="black" stroke="black" points="3696.71,-341.39 3688.43,-334.779 3690.78,-345.11 3696.71,-341.39"/>
</g>
<!-- node_24 -->
<g id="node20" class="node"><title>node_24</title>
<ellipse fill="none" stroke="black" cx="3755.43" cy="-790" rx="108.581" ry="18"/>
<text text-anchor="middle" x="3755.43" y="-786.3" font-family="Times New Roman,serif" font-size="14.00">gl.skins.unlit_textured_vbo</text>
</g>
<!-- node_22&#45;&gt;node_24 -->
<g id="edge28" class="edge"><title>node_22&#45;&gt;node_24</title>
<path fill="none" stroke="black" d="M3539.95,-1024.21C3573.02,-988.417 3651.71,-903.249 3704.28,-846.354"/>
<polygon fill="black" stroke="black" points="3706.98,-848.589 3711.2,-838.869 3701.84,-843.838 3706.98,-848.589"/>
</g>
<!-- node_24&#45;&gt;node_9 -->
<g id="edge32" class="edge"><title>node_24&#45;&gt;node_9</title>
<path fill="none" stroke="black" d="M3772.13,-771.816C3814.46,-728.271 3926.03,-613.485 3974.92,-563.191"/>
<polygon fill="black" stroke="black" points="3977.47,-565.583 3981.93,-555.973 3972.45,-560.704 3977.47,-565.583"/>
</g>
<!-- node_24&#45;&gt;node_15 -->
<g id="edge29" class="edge"><title>node_24&#45;&gt;node_15</title>
<path fill="none" stroke="black" d="M3766.03,-764.214C3785.5,-715.179 3822.65,-602.688 3796.43,-512 3778.12,-448.669 3736.09,-386.02 3702.48,-342.976"/>
<polygon fill="black" stroke="black" points="3705.04,-340.576 3696.09,-334.903 3699.55,-344.918 3705.04,-340.576"/>
</g>
<!-- node_24&#45;&gt;node_18 -->
<g id="edge30" class="edge"><title>node_24&#45;&gt;node_18</title>
<path fill="none" stroke="black" d="M3762.26,-764.161C3774.78,-713.261 3796.26,-594.933 3751.43,-512 3684.61,-388.377 3602.61,-418.294 3489.43,-335 3478.32,-326.827 3466.41,-317.428 3456.14,-309.126"/>
<polygon fill="black" stroke="black" points="3458.27,-306.35 3448.31,-302.748 3453.85,-311.777 3458.27,-306.35"/>
</g>
<!-- node_24&#45;&gt;node_25 -->
<g id="edge31" class="edge"><title>node_24&#45;&gt;node_25</title>
<path fill="none" stroke="black" d="M3749.38,-764.192C3737.85,-716.943 3712.83,-614.42 3700.95,-565.721"/>
<polygon fill="black" stroke="black" points="3704.34,-564.858 3698.57,-555.973 3697.54,-566.518 3704.34,-564.858"/>
</g>
<!-- node_25&#45;&gt;node_11 -->
<g id="edge33" class="edge"><title>node_25&#45;&gt;node_11</title>
<path fill="none" stroke="black" d="M3682.51,-520.314C3659.13,-486.809 3607.03,-408.274 3578.43,-335 3566,-303.16 3579.06,-289.279 3561.43,-260 3503.27,-163.423 3389.2,-87.3321 3332.73,-53.7357"/>
<polygon fill="black" stroke="black" points="3334.25,-50.5692 3323.85,-48.5237 3330.7,-56.6055 3334.25,-50.5692"/>
</g>
<!-- node_25&#45;&gt;node_15 -->
<g id="edge34" class="edge"><title>node_25&#45;&gt;node_15</title>
<path fill="none" stroke="black" d="M3691.68,-519.816C3686,-484.307 3672.74,-401.426 3663.67,-344.773"/>
<polygon fill="black" stroke="black" points="3667.13,-344.189 3662.09,-334.867 3660.21,-345.295 3667.13,-344.189"/>
</g>
<!-- node_25&#45;&gt;node_17 -->
<g id="edge35" class="edge"><title>node_25&#45;&gt;node_17</title>
<path fill="none" stroke="black" d="M3683.08,-520.209C3653.83,-476.935 3575.78,-361.485 3541.72,-311.091"/>
<polygon fill="black" stroke="black" points="3544.58,-309.072 3536.08,-302.747 3538.78,-312.992 3544.58,-309.072"/>
</g>
<!-- node_27 -->
<g id="node22" class="node"><title>node_27</title>
<ellipse fill="none" stroke="black" cx="2540.43" cy="-790" rx="59.5901" ry="18"/>
<text text-anchor="middle" x="2540.43" y="-786.3" font-family="Times New Roman,serif" font-size="14.00">globe_3d.aux</text>
</g>
<!-- node_27&#45;&gt;node_13 -->
<g id="edge36" class="edge"><title>node_27&#45;&gt;node_13</title>
<path fill="none" stroke="black" d="M2610.31,-772.152C2805.94,-724.991 3355.84,-592.421 3526.36,-551.313"/>
<polygon fill="black" stroke="black" points="3527.37,-554.67 3536.27,-548.924 3525.72,-547.865 3527.37,-554.67"/>
</g>
<!-- node_27&#45;&gt;node_15 -->
<g id="edge37" class="edge"><title>node_27&#45;&gt;node_15</title>
<path fill="none" stroke="black" d="M2610.07,-748.257C2709.84,-690.892 2900.25,-585.161 3070.43,-512 3290.02,-417.598 3368.33,-444.555 3577.34,-339.605"/>
<polygon fill="black" stroke="black" points="3579.09,-342.642 3586.43,-335 3575.93,-336.398 3579.09,-342.642"/>
</g>
<!-- node_27&#45;&gt;node_18 -->
<g id="edge38" class="edge"><title>node_27&#45;&gt;node_18</title>
<path fill="none" stroke="black" d="M2610.22,-729.241C2683.4,-668.72 2803.51,-575.261 2918.43,-512 3107.07,-408.162 3183.03,-442.807 3369.43,-335 3381.73,-327.886 3394.18,-318.381 3404.53,-309.707"/>
<polygon fill="black" stroke="black" points="3407.04,-312.166 3412.34,-302.99 3402.47,-306.86 3407.04,-312.166"/>
</g>
<!-- node_27&#45;&gt;node_19 -->
<g id="edge39" class="edge"><title>node_27&#45;&gt;node_19</title>
<path fill="none" stroke="black" d="M2535.73,-512.276C2549.64,-422.247 2580.67,-328.088 2643.43,-260 2862.54,-22.3 3033.77,-154.307 3340.43,-52 3344.94,-50.4962 3349.67,-48.84 3354.4,-47.1695"/>
<polygon fill="black" stroke="black" points="3355.78,-50.3928 3364.05,-43.7643 3353.45,-43.7918 3355.78,-50.3928"/>
</g>
<!-- node_27&#45;&gt;node_19 -->
<g id="edge43" class="edge"><title>node_27&#45;&gt;node_19</title>
<path fill="none" stroke="black" d="M2541.49,-771.594C2539.69,-698.519 2520.18,-413.236 2661.43,-260 2880.54,-22.3 3051.77,-154.307 3358.43,-52 3359.31,-51.7053 3360.21,-51.4047 3361.1,-51.0994"/>
<polygon fill="black" stroke="black" points="3362.52,-54.3125 3370.79,-47.6908 3360.19,-47.7096 3362.52,-54.3125"/>
</g>
<!-- node_27&#45;&gt;node_21 -->
<g id="edge40" class="edge"><title>node_27&#45;&gt;node_21</title>
<path fill="none" stroke="black" d="M2610.19,-812.295C2771.59,-861.562 3167.7,-982.473 3308.63,-1025.49"/>
<polygon fill="black" stroke="black" points="3307.95,-1028.94 3318.54,-1028.52 3309.99,-1022.25 3307.95,-1028.94"/>
</g>
<!-- node_27&#45;&gt;node_22 -->
<g id="edge41" class="edge"><title>node_27&#45;&gt;node_22</title>
<path fill="none" stroke="black" d="M2610.34,-808.456C2760.44,-845.986 3124.67,-937.337 3429.43,-1016 3440.41,-1018.84 3452.1,-1021.88 3463.39,-1024.85"/>
<polygon fill="black" stroke="black" points="3462.62,-1028.26 3473.18,-1027.42 3464.4,-1021.49 3462.62,-1028.26"/>
</g>
<!-- node_27&#45;&gt;node_36 -->
<g id="edge44" class="edge"><title>node_27&#45;&gt;node_36</title>
<path fill="none" stroke="black" d="M2505.26,-775.264C2494.5,-771.331 2482.56,-767.236 2471.43,-764 2116.97,-660.97 1681.08,-578.962 1520.08,-550.141"/>
<polygon fill="black" stroke="black" points="1520.33,-546.632 1509.88,-548.32 1519.1,-553.523 1520.33,-546.632"/>
</g>
<!-- node_57 -->
<g id="node48" class="node"><title>node_57</title>
<polygon fill="none" stroke="blue" stroke-width="2" points="3204.43,-556 3201.43,-560 3180.43,-560 3177.43,-556 3150.43,-556 3150.43,-520 3204.43,-520 3204.43,-556"/>
<text text-anchor="middle" x="3177.43" y="-534.3" font-family="Times New Roman,serif" font-size="14.00">zip</text>
</g>
<!-- node_27&#45;&gt;node_57 -->
<g id="edge42" class="edge"><title>node_27&#45;&gt;node_57</title>
<path fill="none" stroke="black" d="M2610.4,-762.298C2710.41,-724.026 2899.88,-651.111 3060.43,-587 3087.37,-576.242 3117.67,-563.803 3140.68,-554.284"/>
<polygon fill="black" stroke="black" points="3142.17,-557.456 3150.07,-550.396 3139.49,-550.989 3142.17,-557.456"/>
</g>
<!-- node_28 -->
<g id="node23" class="node"><title>node_28</title>
<ellipse fill="none" stroke="black" cx="1569.43" cy="-1042" rx="61.1893" ry="18"/>
<text text-anchor="middle" x="1569.43" y="-1038.3" font-family="Times New Roman,serif" font-size="14.00">globe_3d.bsp</text>
</g>
<!-- node_28&#45;&gt;node_19 -->
<g id="edge45" class="edge"><title>node_28&#45;&gt;node_19</title>
<path fill="none" stroke="black" d="M1625.89,-1035C1846.41,-1011.04 2641.37,-919.621 2718.43,-839 2808.07,-745.209 2712.76,-361.616 2793.43,-260 2795.78,-257.042 3225.14,-98.0077 3357.22,-49.1334"/>
<polygon fill="black" stroke="black" points="3358.76,-52.2953 3366.93,-45.5426 3356.33,-45.7302 3358.76,-52.2953"/>
</g>
<!-- node_37 -->
<g id="node30" class="node"><title>node_37</title>
<ellipse fill="none" stroke="black" cx="1148.43" cy="-790" rx="74.9875" ry="18"/>
<text text-anchor="middle" x="1148.43" y="-786.3" font-family="Times New Roman,serif" font-size="14.00">globe_3d.options</text>
</g>
<!-- node_28&#45;&gt;node_37 -->
<g id="edge46" class="edge"><title>node_28&#45;&gt;node_37</title>
<path fill="none" stroke="black" d="M1543.41,-1025.55C1470.93,-982.505 1266.59,-861.165 1183.86,-812.04"/>
<polygon fill="black" stroke="black" points="1185.47,-808.924 1175.08,-806.828 1181.9,-814.943 1185.47,-808.924"/>
</g>
<!-- node_29 -->
<g id="node24" class="node"><title>node_29</title>
<ellipse fill="none" stroke="black" cx="1148.43" cy="-1042" rx="115.88" ry="18"/>
<text text-anchor="middle" x="1148.43" y="-1038.3" font-family="Times New Roman,serif" font-size="14.00">globe_3d.collision_detection</text>
</g>
<!-- node_29&#45;&gt;node_19 -->
<g id="edge47" class="edge"><title>node_29&#45;&gt;node_19</title>
<path fill="none" stroke="black" d="M1251.81,-1033.88C1573.36,-1010.81 2540.46,-934.073 2642.43,-839 2834.65,-659.784 2589.67,-458.042 2762.43,-260 2944.38,-51.4223 3089.17,-146.198 3349.43,-52 3351.97,-51.0809 3354.59,-50.1286 3357.22,-49.1654"/>
<polygon fill="black" stroke="black" points="3358.56,-52.4018 3366.74,-45.6697 3356.15,-45.8307 3358.56,-52.4018"/>
</g>
<!-- node_29&#45;&gt;node_37 -->
<g id="edge48" class="edge"><title>node_29&#45;&gt;node_37</title>
<path fill="none" stroke="black" d="M1148.43,-1023.82C1148.43,-981.178 1148.43,-870.24 1148.43,-818.419"/>
<polygon fill="black" stroke="black" points="1151.93,-818.304 1148.43,-808.304 1144.93,-818.304 1151.93,-818.304"/>
</g>
<!-- node_31 -->
<g id="node25" class="node"><title>node_31</title>
<ellipse fill="none" stroke="black" cx="1276.43" cy="-1294" rx="145.674" ry="18"/>
<text text-anchor="middle" x="1276.43" y="-1290.3" font-family="Times New Roman,serif" font-size="14.00">globe_3d.culler.impostoring_frustum</text>
</g>
<!-- node_31&#45;&gt;node_19 -->
<g id="edge49" class="edge"><title>node_31&#45;&gt;node_19</title>
<path fill="none" stroke="black" d="M1358.52,-1279.06C1380.56,-1275.38 1404.39,-1271.48 1426.43,-1268 1953.73,-1184.78 2137.68,-1331.17 2614.43,-1091 3014.64,-889.393 2922.42,-622.817 3185.43,-260 3244.35,-178.715 3329.91,-95.5452 3371.26,-57.0436"/>
<polygon fill="black" stroke="black" points="3373.72,-59.5307 3378.68,-50.1686 3368.97,-54.3942 3373.72,-59.5307"/>
</g>
<!-- node_31&#45;&gt;node_25 -->
<g id="edge50" class="edge"><title>node_31&#45;&gt;node_25</title>
<path fill="none" stroke="black" d="M1354.1,-1278.77C1377.31,-1274.87 1402.85,-1270.91 1426.43,-1268 1911.66,-1208.09 3174.63,-1293.95 3619.43,-1091 3764.97,-1024.6 3814.49,-986.491 3876.43,-839 3923.29,-727.422 3787.83,-608.36 3724.79,-560.619"/>
<polygon fill="black" stroke="black" points="3726.51,-557.536 3716.4,-554.364 3722.32,-563.148 3726.51,-557.536"/>
</g>
<!-- node_33 -->
<g id="node26" class="node"><title>node_33</title>
<ellipse fill="none" stroke="black" cx="2100.43" cy="-1042" rx="105.881" ry="18"/>
<text text-anchor="middle" x="2100.43" y="-1038.3" font-family="Times New Roman,serif" font-size="14.00">globe_3d.impostor.simple</text>
</g>
<!-- node_31&#45;&gt;node_33 -->
<g id="edge51" class="edge"><title>node_31&#45;&gt;node_33</title>
<path fill="none" stroke="black" d="M1341.35,-1277.77C1467.9,-1247.41 1755.73,-1174.97 1990.43,-1091 2012.96,-1082.94 2037.4,-1072.46 2057.52,-1063.34"/>
<polygon fill="black" stroke="black" points="2059.08,-1066.47 2066.72,-1059.13 2056.17,-1060.11 2059.08,-1066.47"/>
</g>
<!-- node_34 -->
<g id="node27" class="node"><title>node_34</title>
<ellipse fill="none" stroke="black" cx="2329.43" cy="-1042" rx="104.782" ry="18"/>
<text text-anchor="middle" x="2329.43" y="-1038.3" font-family="Times New Roman,serif" font-size="14.00">globe_3d.impostor.terrain</text>
</g>
<!-- node_31&#45;&gt;node_34 -->
<g id="edge52" class="edge"><title>node_31&#45;&gt;node_34</title>
<path fill="none" stroke="black" d="M1352.2,-1278.6C1545.27,-1241.6 2051.91,-1142.52 2215.43,-1091 2239.41,-1083.45 2265.3,-1072.76 2286.33,-1063.39"/>
<polygon fill="black" stroke="black" points="2287.96,-1066.5 2295.63,-1059.19 2285.08,-1060.12 2287.96,-1066.5"/>
</g>
<!-- node_31&#45;&gt;node_36 -->
<g id="edge53" class="edge"><title>node_31&#45;&gt;node_36</title>
<path fill="none" stroke="black" d="M1284.45,-1275.75C1311.58,-1216.53 1400.17,-1015.41 1436.43,-839 1456.74,-740.189 1457.78,-619.601 1457.07,-566.425"/>
<polygon fill="black" stroke="black" points="1460.57,-566.073 1456.9,-556.133 1453.57,-566.189 1460.57,-566.073"/>
</g>
<!-- node_33&#45;&gt;node_11 -->
<g id="edge54" class="edge"><title>node_33&#45;&gt;node_11</title>
<path fill="none" stroke="black" d="M2194.62,-1016.35C2327.88,-979.51 2561.19,-907.118 2614.43,-839 2774.26,-634.512 2528.51,-462.835 2690.43,-260 2832.41,-82.1446 3129.26,-44.8776 3248.37,-37.0694"/>
<polygon fill="black" stroke="black" points="3248.89,-40.5441 3258.66,-36.4398 3248.46,-33.5571 3248.89,-40.5441"/>
</g>
<!-- node_33&#45;&gt;node_15 -->
<g id="edge55" class="edge"><title>node_33&#45;&gt;node_15</title>
<path fill="none" stroke="black" d="M2210.6,-1016.49C2411.75,-971.16 2823.04,-875.504 2879.43,-839 3035.76,-737.798 2991.72,-622.757 3141.43,-512 3312.54,-385.411 3399.29,-436.412 3586.43,-335 3600.03,-327.631 3614.14,-318.035 3625.96,-309.361"/>
<polygon fill="black" stroke="black" points="3628.21,-312.046 3634.12,-303.253 3624.02,-306.442 3628.21,-312.046"/>
</g>
<!-- node_33&#45;&gt;node_19 -->
<g id="edge56" class="edge"><title>node_33&#45;&gt;node_19</title>
<path fill="none" stroke="black" d="M2200.74,-1016.4C2375.23,-972.71 2719.64,-882.116 2756.43,-839 2925.13,-641.29 2678.3,-464.715 2838.43,-260 2855.65,-237.98 3234.86,-94.9717 3357.52,-49.1219"/>
<polygon fill="black" stroke="black" points="3358.77,-52.3928 3366.91,-45.6149 3356.32,-45.8354 3358.77,-52.3928"/>
</g>
<!-- node_33&#45;&gt;node_20 -->
<g id="edge57" class="edge"><title>node_33&#45;&gt;node_20</title>
<path fill="none" stroke="black" d="M2205.47,-1016.08C2395.23,-970.462 2780.4,-874.935 2832.43,-839 2906.49,-787.848 3011.92,-579.53 3071.43,-512 3142,-431.912 3237.06,-348.29 3282.74,-309.384"/>
<polygon fill="black" stroke="black" points="3285.05,-312.008 3290.41,-302.87 3280.52,-306.67 3285.05,-312.008"/>
</g>
<!-- node_33&#45;&gt;node_22 -->
<g id="edge58" class="edge"><title>node_33&#45;&gt;node_22</title>
<path fill="none" stroke="black" d="M2128.97,-1090.67C2150.65,-1122.48 2183.66,-1161.37 2224.43,-1179.5 2467.27,-1287.51 3182.47,-1297.88 3420.43,-1179.5 3466.53,-1156.57 3497.63,-1102.37 3513.08,-1069.28"/>
<polygon fill="black" stroke="black" points="3516.28,-1070.7 3517.2,-1060.15 3509.9,-1067.83 3516.28,-1070.7"/>
</g>
<!-- node_33&#45;&gt;node_24 -->
<g id="edge59" class="edge"><title>node_33&#45;&gt;node_24</title>
<path fill="none" stroke="black" d="M2215.43,-1016C2842.05,-909.253 3023.3,-1003.84 3632.52,-841.65"/>
<polygon fill="black" stroke="black" points="3633.67,-844.965 3642.43,-839 3631.87,-838.203 3633.67,-844.965"/>
</g>
<!-- node_33&#45;&gt;node_25 -->
<g id="edge60" class="edge"><title>node_33&#45;&gt;node_25</title>
<path fill="none" stroke="black" d="M2206.43,-1016C2631.8,-930.574 2757.53,-984.028 3166.43,-839 3386.87,-760.815 3435.34,-718.992 3628.43,-587 3640.18,-578.971 3652.35,-568.983 3663.13,-560.2"/>
<polygon fill="black" stroke="black" points="3665.5,-562.784 3671.07,-553.771 3661.09,-557.343 3665.5,-562.784"/>
</g>
<!-- node_33&#45;&gt;node_25 -->
<g id="edge63" class="edge"><title>node_33&#45;&gt;node_25</title>
<path fill="none" stroke="black" d="M2167.14,-1027.99C2185.75,-1024.02 2205.9,-1019.72 2224.43,-1016 2649.8,-930.574 2775.53,-984.028 3184.43,-839 3404.87,-760.815 3453.34,-718.992 3646.43,-587 3656.9,-579.845 3667.7,-571.134 3676.55,-563.107"/>
<polygon fill="black" stroke="black" points="3679.21,-565.41 3684.06,-555.991 3674.39,-560.33 3679.21,-565.41"/>
</g>
<!-- node_33&#45;&gt;node_36 -->
<g id="edge61" class="edge"><title>node_33&#45;&gt;node_36</title>
<path fill="none" stroke="black" d="M2065.4,-1016.15C1950.1,-930.042 1584.76,-645.232 1482.92,-562.02"/>
<polygon fill="black" stroke="black" points="1484.94,-559.152 1474.99,-555.51 1480.5,-564.562 1484.94,-559.152"/>
</g>
<!-- node_33&#45;&gt;node_36 -->
<g id="edge64" class="edge"><title>node_33&#45;&gt;node_36</title>
<path fill="none" stroke="black" d="M2081.28,-1024.01C1990.17,-948.812 1601.71,-645.919 1487.83,-561.146"/>
<polygon fill="black" stroke="black" points="1489.62,-558.114 1479.5,-554.973 1485.45,-563.738 1489.62,-558.114"/>
</g>
<!-- node_47 -->
<g id="node39" class="node"><title>node_47</title>
<ellipse fill="none" stroke="black" cx="2352.43" cy="-790" rx="110.48" ry="18"/>
<text text-anchor="middle" x="2352.43" y="-786.3" font-family="Times New Roman,serif" font-size="14.00">globe_3d.visuals_rendering</text>
</g>
<!-- node_33&#45;&gt;node_47 -->
<g id="edge62" class="edge"><title>node_33&#45;&gt;node_47</title>
<path fill="none" stroke="black" d="M2125.13,-1016.5C2173.42,-968.587 2279.82,-863.034 2327.94,-815.295"/>
<polygon fill="black" stroke="black" points="2330.61,-817.575 2335.25,-808.048 2325.68,-812.606 2330.61,-817.575"/>
</g>
<!-- node_34&#45;&gt;node_19 -->
<g id="edge65" class="edge"><title>node_34&#45;&gt;node_19</title>
<path fill="none" stroke="black" d="M2384.87,-1026.62C2503.72,-994.61 2776.83,-914.337 2832.43,-839 2985.77,-631.243 2730.23,-470.036 2880.43,-260 2910.49,-217.971 3243.41,-91.4455 3357.4,-49.0318"/>
<polygon fill="black" stroke="black" points="3358.65,-52.3045 3366.8,-45.5418 3356.21,-45.7425 3358.65,-52.3045"/>
</g>
<!-- node_34&#45;&gt;node_25 -->
<g id="edge66" class="edge"><title>node_34&#45;&gt;node_25</title>
<path fill="none" stroke="black" d="M2387.25,-1026.94C2403.74,-1023.14 2421.75,-1019.21 2438.43,-1016 2940.21,-919.49 3174.68,-1157.28 3574.43,-839 3619.31,-803.263 3669.09,-633.093 3687.28,-566.145"/>
<polygon fill="black" stroke="black" points="3690.7,-566.889 3689.92,-556.323 3683.94,-565.07 3690.7,-566.889"/>
</g>
<!-- node_35 -->
<g id="node28" class="node"><title>node_35</title>
<ellipse fill="none" stroke="black" cx="1656.43" cy="-1294" rx="53.8905" ry="18"/>
<text text-anchor="middle" x="1656.43" y="-1290.3" font-family="Times New Roman,serif" font-size="14.00">globe_3d.io</text>
</g>
<!-- node_35&#45;&gt;node_17 -->
<g id="edge67" class="edge"><title>node_35&#45;&gt;node_17</title>
<path fill="none" stroke="black" d="M1686.62,-1278.97C1696.83,-1274.78 1708.44,-1270.61 1719.43,-1268 2579.84,-1063.44 2857.88,-1356.65 3701.43,-1091 4130.6,-955.848 4353.97,-976.382 4579.43,-587 4596.13,-558.153 4600.85,-537.54 4579.43,-512 4289.11,-165.839 3984.16,-533.737 3578.43,-335 3566.06,-328.942 3554.46,-319.12 3545.28,-309.935"/>
<polygon fill="black" stroke="black" points="3547.61,-307.301 3538.18,-302.465 3542.54,-312.124 3547.61,-307.301"/>
</g>
<!-- node_35&#45;&gt;node_28 -->
<g id="edge68" class="edge"><title>node_35&#45;&gt;node_28</title>
<path fill="none" stroke="black" d="M1650.45,-1275.82C1635.55,-1232.99 1596.66,-1121.24 1578.73,-1069.72"/>
<polygon fill="black" stroke="black" points="1581.93,-1068.27 1575.34,-1059.97 1575.32,-1070.57 1581.93,-1068.27"/>
</g>
<!-- node_43 -->
<g id="node36" class="node"><title>node_43</title>
<ellipse fill="none" stroke="black" cx="2527.43" cy="-1042" rx="75.2868" ry="18"/>
<text text-anchor="middle" x="2527.43" y="-1038.3" font-family="Times New Roman,serif" font-size="14.00">globe_3d.textures</text>
</g>
<!-- node_35&#45;&gt;node_43 -->
<g id="edge69" class="edge"><title>node_35&#45;&gt;node_43</title>
<path fill="none" stroke="black" d="M1688.17,-1279.41C1698.08,-1275.44 1709.11,-1271.28 1719.43,-1268 2036.3,-1167.09 2138.46,-1216.47 2446.43,-1091 2463.48,-1084.05 2481.2,-1073.93 2495.71,-1064.77"/>
<polygon fill="black" stroke="black" points="2497.79,-1067.59 2504.29,-1059.22 2493.99,-1061.71 2497.79,-1067.59"/>
</g>
<!-- node_56 -->
<g id="node47" class="node"><title>node_56</title>
<polygon fill="none" stroke="blue" stroke-width="2" points="3166.43,-808 3163.43,-812 3142.43,-812 3139.43,-808 3112.43,-808 3112.43,-772 3166.43,-772 3166.43,-808"/>
<text text-anchor="middle" x="3139.43" y="-786.3" font-family="Times New Roman,serif" font-size="14.00">unzip</text>
</g>
<!-- node_35&#45;&gt;node_56 -->
<g id="edge70" class="edge"><title>node_35&#45;&gt;node_56</title>
<path fill="none" stroke="black" d="M1687.35,-1279.09C1697.42,-1275.01 1708.75,-1270.88 1719.43,-1268 2233.63,-1129.55 2457.52,-1380.54 2904.43,-1091 2937.64,-1069.48 2929.07,-1047.95 2952.43,-1016 2967.4,-995.526 3072.86,-870.021 3118.48,-815.853"/>
<polygon fill="black" stroke="black" points="3121.25,-818.001 3125.01,-808.098 3115.89,-813.491 3121.25,-818.001"/>
</g>
<!-- node_36&#45;&gt;node_19 -->
<g id="edge71" class="edge"><title>node_36&#45;&gt;node_19</title>
<path fill="none" stroke="black" d="M1500.13,-524.423C1640.29,-484.217 2091.36,-355.831 2467.43,-260 2857.71,-160.549 2963.82,-168.247 3349.43,-52 3352.18,-51.1706 3355.01,-50.2645 3357.84,-49.3162"/>
<polygon fill="black" stroke="black" points="3359.11,-52.5803 3367.4,-45.9801 3356.8,-45.9714 3359.11,-52.5803"/>
</g>
<!-- node_38 -->
<g id="node31" class="node"><title>node_38</title>
<ellipse fill="none" stroke="black" cx="1512.43" cy="-1294" rx="72.2875" ry="18"/>
<text text-anchor="middle" x="1512.43" y="-1290.3" font-family="Times New Roman,serif" font-size="14.00">globe_3d.portals</text>
</g>
<!-- node_38&#45;&gt;node_19 -->
<g id="edge72" class="edge"><title>node_38&#45;&gt;node_19</title>
<path fill="none" stroke="black" d="M1553.29,-1278.98C1566.03,-1274.99 1580.21,-1270.94 1593.43,-1268 2151.04,-1144.03 2412.77,-1438.11 2866.43,-1091 2886.36,-1075.75 3207.71,-281.624 3220.43,-260 3267.17,-180.563 3338.53,-97.6161 3373.95,-58.3147"/>
<polygon fill="black" stroke="black" points="3376.81,-60.3664 3380.94,-50.6076 3371.63,-55.6638 3376.81,-60.3664"/>
</g>
<!-- node_38&#45;&gt;node_21 -->
<g id="edge73" class="edge"><title>node_38&#45;&gt;node_21</title>
<path fill="none" stroke="black" d="M1552.86,-1279.02C1565.71,-1274.98 1580.05,-1270.89 1593.43,-1268 1928.94,-1195.42 3011.82,-1079.39 3292.49,-1049.96"/>
<polygon fill="black" stroke="black" points="3292.94,-1053.43 3302.52,-1048.91 3292.21,-1046.47 3292.94,-1053.43"/>
</g>
<!-- node_38&#45;&gt;node_50 -->
<g id="edge74" class="edge"><title>node_38&#45;&gt;node_50</title>
<path fill="none" stroke="black" d="M1470.56,-1279.32C1365.83,-1244.53 1095.79,-1151.23 1023.43,-1091 743.644,-858.101 576.764,-424.205 537.459,-313.33"/>
<polygon fill="black" stroke="black" points="540.668,-311.903 534.055,-303.626 534.063,-314.221 540.668,-311.903"/>
</g>
<!-- node_39 -->
<g id="node32" class="node"><title>node_39</title>
<ellipse fill="none" stroke="black" cx="1845.43" cy="-1294" rx="116.979" ry="18"/>
<text text-anchor="middle" x="1845.43" y="-1290.3" font-family="Times New Roman,serif" font-size="14.00">globe_3d.random_extrusions</text>
</g>
<!-- node_39&#45;&gt;node_19 -->
<g id="edge75" class="edge"><title>node_39&#45;&gt;node_19</title>
<path fill="none" stroke="black" d="M1913.4,-1279.31C1932.19,-1275.58 1952.59,-1271.59 1971.43,-1268 2402.36,-1185.98 2590.86,-1353.35 2942.43,-1091 2972.38,-1068.65 2957.78,-1045.72 2980.43,-1016 3051.39,-922.919 3120.17,-942.179 3175.43,-839 3297.76,-610.594 3156.34,-504.026 3243.43,-260 3272.8,-177.723 3339.3,-96.6594 3373.78,-58.1684"/>
<polygon fill="black" stroke="black" points="3376.51,-60.3752 3380.63,-50.6159 3371.32,-55.6733 3376.51,-60.3752"/>
</g>
<!-- node_40 -->
<g id="node33" class="node"><title>node_40</title>
<ellipse fill="none" stroke="black" cx="985.43" cy="-1294" rx="127.277" ry="18"/>
<text text-anchor="middle" x="985.43" y="-1290.3" font-family="Times New Roman,serif" font-size="14.00">globe_3d.software_anti_aliasing</text>
</g>
<!-- node_40&#45;&gt;node_50 -->
<g id="edge76" class="edge"><title>node_40&#45;&gt;node_50</title>
<path fill="none" stroke="black" d="M914.654,-1278.92C822.743,-1256.54 665.251,-1203.35 590.43,-1091 503.333,-960.218 521.309,-440.613 527.057,-314.624"/>
<polygon fill="black" stroke="black" points="530.568,-314.467 527.541,-304.314 523.576,-314.139 530.568,-314.467"/>
</g>
<!-- node_41 -->
<g id="node34" class="node"><title>node_41</title>
<ellipse fill="none" stroke="black" cx="2048.43" cy="-1294" rx="67.6881" ry="18"/>
<text text-anchor="middle" x="2048.43" y="-1290.3" font-family="Times New Roman,serif" font-size="14.00">globe_3d.sprite</text>
</g>
<!-- node_41&#45;&gt;node_15 -->
<g id="edge77" class="edge"><title>node_41&#45;&gt;node_15</title>
<path fill="none" stroke="black" d="M2086.56,-1279.12C2098.01,-1275.23 2110.65,-1271.19 2122.43,-1268 2498.24,-1166.17 2642.42,-1284.26 2980.43,-1091 3268.89,-926.067 3242.93,-769.104 3453.43,-512 3502.12,-452.53 3561.03,-387.312 3602.45,-342.474"/>
<polygon fill="black" stroke="black" points="3605.23,-344.619 3609.46,-334.902 3600.1,-339.865 3605.23,-344.619"/>
</g>
<!-- node_41&#45;&gt;node_22 -->
<g id="edge78" class="edge"><title>node_41&#45;&gt;node_22</title>
<path fill="none" stroke="black" d="M2085.67,-1278.87C2097.31,-1274.88 2110.28,-1270.85 2122.43,-1268 2693.16,-1134.25 2869.63,-1264.92 3429.43,-1091 3449.98,-1084.62 3471.49,-1074.11 3488.83,-1064.55"/>
<polygon fill="black" stroke="black" points="3491.02,-1067.34 3498.01,-1059.37 3487.58,-1061.24 3491.02,-1067.34"/>
</g>
<!-- node_41&#45;&gt;node_24 -->
<g id="edge79" class="edge"><title>node_41&#45;&gt;node_24</title>
<path fill="none" stroke="black" d="M2085.25,-1278.81C2096.98,-1274.76 2110.12,-1270.72 2122.43,-1268 2475.84,-1189.96 3493.6,-1354.76 3741.43,-1091 3773.1,-1057.29 3767.6,-926.197 3761.23,-848.904"/>
<polygon fill="black" stroke="black" points="3764.71,-848.498 3760.38,-838.832 3757.74,-849.093 3764.71,-848.498"/>
</g>
<!-- node_42 -->
<g id="node35" class="node"><title>node_42</title>
<ellipse fill="none" stroke="black" cx="951.43" cy="-790" rx="81.7856" ry="18"/>
<text text-anchor="middle" x="951.43" y="-786.3" font-family="Times New Roman,serif" font-size="14.00">globe_3d.stars_sky</text>
</g>
<!-- node_42&#45;&gt;node_36 -->
<g id="edge80" class="edge"><title>node_42&#45;&gt;node_36</title>
<path fill="none" stroke="black" d="M983.02,-773.361C1071.21,-729.705 1319.92,-606.58 1416.96,-558.541"/>
<polygon fill="black" stroke="black" points="1418.73,-561.571 1426.14,-553.997 1415.62,-555.297 1418.73,-561.571"/>
</g>
<!-- node_43&#45;&gt;node_17 -->
<g id="edge81" class="edge"><title>node_43&#45;&gt;node_17</title>
<path fill="none" stroke="black" d="M2567.85,-1026.77C2641.73,-999.304 2800.89,-933.247 2908.43,-839 3042.64,-721.384 3006.23,-628.472 3141.43,-512 3272.9,-398.746 3356.59,-446.642 3489.43,-335 3497.28,-328.405 3504.41,-319.788 3510.22,-311.677"/>
<polygon fill="black" stroke="black" points="3513.26,-313.435 3515.98,-303.195 3507.46,-309.505 3513.26,-313.435"/>
</g>
<!-- node_43&#45;&gt;node_56 -->
<g id="edge82" class="edge"><title>node_43&#45;&gt;node_56</title>
<path fill="none" stroke="black" d="M2571.75,-1027.27C2664.61,-997.852 2885.47,-924.409 3060.43,-839 3075.69,-831.55 3091.83,-822.058 3105.52,-813.484"/>
<polygon fill="black" stroke="black" points="3107.57,-816.332 3114.13,-808.014 3103.81,-810.424 3107.57,-816.332"/>
</g>
<!-- node_45 -->
<g id="node37" class="node"><title>node_45</title>
<ellipse fill="none" stroke="black" cx="2499.43" cy="-1294" rx="94.7833" ry="18"/>
<text text-anchor="middle" x="2499.43" y="-1290.3" font-family="Times New Roman,serif" font-size="14.00">globe_3d.tri_mesh.vbo</text>
</g>
<!-- node_45&#45;&gt;node_7 -->
<g id="edge84" class="edge"><title>node_45&#45;&gt;node_7</title>
<path fill="none" stroke="black" d="M2583.5,-1285.46C2834.96,-1262.05 3577.54,-1186.42 3799.43,-1091 4069.53,-974.853 4277,-657.531 4333.26,-564.782"/>
<polygon fill="black" stroke="black" points="4336.37,-566.412 4338.52,-556.038 4330.37,-562.804 4336.37,-566.412"/>
</g>
<!-- node_45&#45;&gt;node_10 -->
<g id="edge85" class="edge"><title>node_45&#45;&gt;node_10</title>
<path fill="none" stroke="black" d="M2586.57,-1286.66C2851.89,-1266.35 3645.94,-1197.95 3879.43,-1091 4164.91,-960.239 4414.25,-653.257 4482.81,-563.845"/>
<polygon fill="black" stroke="black" points="4485.6,-565.96 4488.88,-555.885 4480.04,-561.717 4485.6,-565.96"/>
</g>
<!-- node_45&#45;&gt;node_12 -->
<g id="edge86" class="edge"><title>node_45&#45;&gt;node_12</title>
<path fill="none" stroke="black" d="M2552.69,-1278.97C2645.67,-1252.74 2840.94,-1189.84 2980.43,-1091 3103.67,-1003.68 3143.75,-975.487 3208.43,-839 3256.94,-736.646 3237.44,-699.909 3246.43,-587 3247.15,-577.945 3245.67,-268.27 3249.43,-260 3294.56,-160.693 3407.2,-87.1293 3465.77,-54.1694"/>
<polygon fill="black" stroke="black" points="3467.63,-57.1377 3474.68,-49.2304 3464.24,-51.0144 3467.63,-57.1377"/>
</g>
<!-- node_45&#45;&gt;node_16 -->
<g id="edge87" class="edge"><title>node_45&#45;&gt;node_16</title>
<path fill="none" stroke="black" d="M2577.31,-1283.71C2713.38,-1264.77 2999.77,-1212.74 3208.43,-1091 3249.42,-1067.08 3250.18,-1048.84 3284.43,-1016 3367.73,-936.126 3422.34,-941.987 3474.43,-839 3540.46,-708.438 3440.26,-639.275 3512.43,-512 3543.68,-456.892 3701.18,-352.849 3771.47,-308.213"/>
<polygon fill="black" stroke="black" points="3773.41,-311.124 3779.99,-302.82 3769.67,-305.209 3773.41,-311.124"/>
</g>
<!-- node_45&#45;&gt;node_22 -->
<g id="edge88" class="edge"><title>node_45&#45;&gt;node_22</title>
<path fill="none" stroke="black" d="M2575.36,-1283.18C2736.33,-1260.93 3122.28,-1199.95 3429.43,-1091 3449.41,-1083.91 3470.57,-1073.53 3487.83,-1064.24"/>
<polygon fill="black" stroke="black" points="3489.91,-1067.09 3496.99,-1059.21 3486.54,-1060.96 3489.91,-1067.09"/>
</g>
<!-- node_45&#45;&gt;node_24 -->
<g id="edge83" class="edge"><title>node_45&#45;&gt;node_24</title>
<path fill="none" stroke="black" d="M2602.41,-1292.97C2877.52,-1290.49 3619,-1267.25 3769.43,-1091 3826.61,-1024 3802.23,-914.785 3779.03,-848.246"/>
<polygon fill="black" stroke="black" points="3782.29,-846.981 3775.62,-838.749 3775.7,-849.344 3782.29,-846.981"/>
</g>
<!-- node_46 -->
<g id="node38" class="node"><title>node_46</title>
<ellipse fill="none" stroke="black" cx="2260.43" cy="-1294" rx="126.178" ry="18"/>
<text text-anchor="middle" x="2260.43" y="-1290.3" font-family="Times New Roman,serif" font-size="14.00">globe_3d.tri_mesh.vertex_array</text>
</g>
<!-- node_46&#45;&gt;node_15 -->
<g id="edge89" class="edge"><title>node_46&#45;&gt;node_15</title>
<path fill="none" stroke="black" d="M2327.07,-1278.67C2512.39,-1238.59 3024.81,-1125.92 3094.43,-1091 3133.65,-1071.33 3374.88,-876.021 3398.43,-839 3479.02,-712.293 3417.83,-647.077 3483.43,-512 3522.85,-430.829 3593.89,-350.158 3630.77,-311.164"/>
<polygon fill="black" stroke="black" points="3633.72,-313.139 3638.1,-303.49 3628.66,-308.305 3633.72,-313.139"/>
</g>
<!-- node_46&#45;&gt;node_20 -->
<g id="edge90" class="edge"><title>node_46&#45;&gt;node_20</title>
<path fill="none" stroke="black" d="M2329.02,-1278.86C2486.54,-1245.57 2869.16,-1159.9 2980.43,-1091 3108.84,-1011.48 3141.62,-974.458 3208.43,-839 3299.58,-654.199 3309.06,-397.971 3309.6,-314.483"/>
<polygon fill="black" stroke="black" points="3313.1,-314.313 3309.62,-304.304 3306.1,-314.296 3313.1,-314.313"/>
</g>
<!-- node_46&#45;&gt;node_22 -->
<g id="edge91" class="edge"><title>node_46&#45;&gt;node_22</title>
<path fill="none" stroke="black" d="M2333.61,-1279.26C2353.65,-1275.55 2375.37,-1271.57 2395.43,-1268 2854.44,-1186.22 2986.67,-1237.08 3429.43,-1091 3449.71,-1084.31 3471.05,-1073.87 3488.35,-1064.44"/>
<polygon fill="black" stroke="black" points="3490.48,-1067.26 3497.52,-1059.33 3487.08,-1061.14 3490.48,-1067.26"/>
</g>
<!-- node_47&#45;&gt;node_11 -->
<g id="edge92" class="edge"><title>node_47&#45;&gt;node_11</title>
<path fill="none" stroke="black" d="M2350.42,-771.979C2342.84,-699.266 2323.31,-411.522 2467.43,-260 2578.24,-143.498 3089.34,-64.0349 3250.56,-41.5258"/>
<polygon fill="black" stroke="black" points="3251.24,-44.965 3260.67,-40.1257 3250.28,-38.0312 3251.24,-44.965"/>
</g>
<!-- node_47&#45;&gt;node_19 -->
<g id="edge93" class="edge"><title>node_47&#45;&gt;node_19</title>
<path fill="none" stroke="black" d="M2355.24,-771.679C2368.16,-697.736 2428.84,-405.677 2601.43,-260 2865.11,-37.4322 3021.1,-158.12 3349.43,-52 3352.16,-51.1163 3354.98,-50.1701 3357.8,-49.1933"/>
<polygon fill="black" stroke="black" points="3359.09,-52.4492 3367.34,-45.8004 3356.74,-45.854 3359.09,-52.4492"/>
</g>
<!-- node_47&#45;&gt;node_22 -->
<g id="edge94" class="edge"><title>node_47&#45;&gt;node_22</title>
<path fill="none" stroke="black" d="M2387.18,-807.175C2410.57,-817.52 2442.34,-830.539 2471.43,-839 2887.18,-959.926 3006.88,-921.505 3429.43,-1016 3441,-1018.59 3453.3,-1021.61 3465.07,-1024.65"/>
<polygon fill="black" stroke="black" points="3464.24,-1028.05 3474.8,-1027.19 3466.01,-1021.28 3464.24,-1028.05"/>
</g>
<!-- node_47&#45;&gt;node_24 -->
<g id="edge95" class="edge"><title>node_47&#45;&gt;node_24</title>
<path fill="none" stroke="black" d="M2362.53,-808.269C2381.08,-839.676 2423.91,-902.897 2480.43,-927.5 2715.36,-1029.77 3399.74,-1032.57 3633.43,-927.5 3670.24,-910.952 3700.45,-877.203 3721.6,-847.283"/>
<polygon fill="black" stroke="black" points="3724.54,-849.186 3727.32,-838.964 3718.77,-845.219 3724.54,-849.186"/>
</g>
<!-- node_47&#45;&gt;node_36 -->
<g id="edge96" class="edge"><title>node_47&#45;&gt;node_36</title>
<path fill="none" stroke="black" d="M2299.4,-774.202C2140.76,-729.94 1671,-598.868 1510.72,-554.149"/>
<polygon fill="black" stroke="black" points="1511.19,-550.647 1500.62,-551.33 1509.31,-557.389 1511.19,-550.647"/>
</g>
<!-- node_48 -->
<g id="node40" class="node"><title>node_48</title>
<ellipse fill="none" stroke="black" cx="1339.43" cy="-790" rx="87.9851" ry="18"/>
<text text-anchor="middle" x="1339.43" y="-786.3" font-family="Times New Roman,serif" font-size="14.00">globe_3d.wire_frame</text>
</g>
<!-- node_48&#45;&gt;node_36 -->
<g id="edge97" class="edge"><title>node_48&#45;&gt;node_36</title>
<path fill="none" stroke="black" d="M1347.47,-771.816C1367.6,-728.807 1420.25,-616.303 1444.23,-565.079"/>
<polygon fill="black" stroke="black" points="1447.42,-566.514 1448.49,-555.973 1441.08,-563.547 1447.42,-566.514"/>
</g>
<!-- node_49 -->
<g id="node41" class="node"><title>node_49</title>
<ellipse fill="none" stroke="black" cx="602.43" cy="-1546" rx="70.3881" ry="18"/>
<text text-anchor="middle" x="602.43" y="-1542.3" font-family="Times New Roman,serif" font-size="14.00">globe_3d_demo</text>
</g>
<!-- node_49&#45;&gt;node_1 -->
<g id="edge98" class="edge"><title>node_49&#45;&gt;node_1</title>
<path fill="none" stroke="black" d="M545.55,-1535.34C464.649,-1518.33 318.42,-1474.76 248.43,-1374 182.58,-1279.2 200.697,-1130.51 211.777,-1069.98"/>
<polygon fill="black" stroke="black" points="215.232,-1070.55 213.676,-1060.07 208.357,-1069.23 215.232,-1070.55"/>
</g>
<!-- node_49&#45;&gt;node_2 -->
<g id="edge99" class="edge"><title>node_49&#45;&gt;node_2</title>
<path fill="none" stroke="black" d="M549.686,-1534.01C475.676,-1515.43 343.667,-1470.05 286.43,-1374 229.679,-1278.76 291.838,-920.514 311.113,-818.35"/>
<polygon fill="black" stroke="black" points="314.608,-818.706 313.041,-808.228 307.731,-817.396 314.608,-818.706"/>
</g>
<!-- node_49&#45;&gt;node_17 -->
<g id="edge100" class="edge"><title>node_49&#45;&gt;node_17</title>
<path fill="none" stroke="black" d="M670.829,-1541.83C1014.96,-1525.6 2548.38,-1449.53 2746.43,-1374 3244.28,-1184.15 3475.56,-461.138 3518.12,-313.444"/>
<polygon fill="black" stroke="black" points="3521.48,-314.395 3520.86,-303.819 3514.75,-312.479 3521.48,-314.395"/>
</g>
<!-- node_49&#45;&gt;node_18 -->
<g id="edge101" class="edge"><title>node_49&#45;&gt;node_18</title>
<path fill="none" stroke="black" d="M672.226,-1543.55C982.391,-1536.42 2236.72,-1500.17 2606.43,-1374 2954.08,-1255.36 3062.76,-1162.69 3236.43,-839 3338.05,-649.598 3403.59,-395.922 3423.23,-313.832"/>
<polygon fill="black" stroke="black" points="3426.64,-314.584 3425.54,-304.046 3419.83,-312.971 3426.64,-314.584"/>
</g>
<!-- node_49&#45;&gt;node_19 -->
<g id="edge102" class="edge"><title>node_49&#45;&gt;node_19</title>
<path fill="none" stroke="black" d="M534.354,-1541.31C433.144,-1531.72 245.872,-1497.31 161.43,-1374 -124.213,-956.876 -19.6128,-554.327 391.43,-260 927.198,123.636 2705.24,-190.719 3349.43,-52 3352.41,-51.3576 3355.46,-50.5618 3358.5,-49.6681"/>
<polygon fill="black" stroke="black" points="3359.65,-52.974 3368.08,-46.5487 3357.49,-46.3183 3359.65,-52.974"/>
</g>
<!-- node_49&#45;&gt;node_27 -->
<g id="edge103" class="edge"><title>node_49&#45;&gt;node_27</title>
<path fill="none" stroke="black" d="M604.361,-1527.76C609.618,-1483.66 625.947,-1363.45 657.43,-1268 696.227,-1150.37 675.396,-1087.65 776.43,-1016 1085.35,-796.931 2116.45,-970.966 2471.43,-839 2486.99,-833.216 2502.34,-823.095 2514.6,-813.634"/>
<polygon fill="black" stroke="black" points="2516.95,-816.237 2522.56,-807.25 2512.57,-810.777 2516.95,-816.237"/>
</g>
<!-- node_49&#45;&gt;node_28 -->
<g id="edge104" class="edge"><title>node_49&#45;&gt;node_28</title>
<path fill="none" stroke="black" d="M612.676,-1527.85C630.676,-1497.41 668.694,-1431.71 696.43,-1374 718.527,-1328.03 702.122,-1301.68 740.43,-1268 857.244,-1165.3 1334.1,-1080.58 1506.69,-1052.72"/>
<polygon fill="black" stroke="black" points="1507.32,-1056.17 1516.64,-1051.13 1506.21,-1049.26 1507.32,-1056.17"/>
</g>
<!-- node_49&#45;&gt;node_29 -->
<g id="edge105" class="edge"><title>node_49&#45;&gt;node_29</title>
<path fill="none" stroke="black" d="M607.775,-1527.94C625.788,-1470.81 684.164,-1288.62 702.43,-1268 805.433,-1151.74 982.607,-1088.03 1079.76,-1060.24"/>
<polygon fill="black" stroke="black" points="1080.8,-1063.58 1089.48,-1057.5 1078.9,-1056.84 1080.8,-1063.58"/>
</g>
<!-- node_49&#45;&gt;node_35 -->
<g id="edge106" class="edge"><title>node_49&#45;&gt;node_35</title>
<path fill="none" stroke="black" d="M668.485,-1539.73C863.799,-1523.2 1434.81,-1467.84 1593.43,-1374 1614.77,-1361.37 1631.75,-1338.6 1642.68,-1320.74"/>
<polygon fill="black" stroke="black" points="1645.81,-1322.33 1647.84,-1311.93 1639.77,-1318.79 1645.81,-1322.33"/>
</g>
<!-- node_49&#45;&gt;node_36 -->
<g id="edge107" class="edge"><title>node_49&#45;&gt;node_36</title>
<path fill="none" stroke="black" d="M555.837,-1532.53C489.486,-1511.97 370.2,-1464 319.43,-1374 261.458,-1271.24 396.622,-1032.3 408.43,-1016 653.381,-677.817 1196.35,-573.939 1387.9,-547.158"/>
<polygon fill="black" stroke="black" points="1388.41,-550.621 1397.84,-545.794 1387.46,-543.686 1388.41,-550.621"/>
</g>
<!-- node_49&#45;&gt;node_37 -->
<g id="edge108" class="edge"><title>node_49&#45;&gt;node_37</title>
<path fill="none" stroke="black" d="M602.645,-1527.96C603.466,-1484.32 607.421,-1365.11 626.43,-1268 637.691,-1210.47 666.622,-1060.8 704.43,-1016 732.969,-982.184 1000.05,-858.453 1105.71,-810.33"/>
<polygon fill="black" stroke="black" points="1107.17,-813.51 1114.82,-806.183 1104.27,-807.138 1107.17,-813.51"/>
</g>
<!-- node_49&#45;&gt;node_40 -->
<g id="edge109" class="edge"><title>node_49&#45;&gt;node_40</title>
<path fill="none" stroke="black" d="M626.971,-1528.98C693.05,-1485.85 874.859,-1367.17 951.088,-1317.42"/>
<polygon fill="black" stroke="black" points="953.385,-1320.1 959.846,-1311.7 949.559,-1314.23 953.385,-1320.1"/>
</g>
<!-- node_49&#45;&gt;node_42 -->
<g id="edge110" class="edge"><title>node_49&#45;&gt;node_42</title>
<path fill="none" stroke="black" d="M599.288,-1527.97C587.272,-1457.57 550.503,-1184.96 666.43,-1016 731.902,-920.574 850.029,-846.306 911.626,-811.922"/>
<polygon fill="black" stroke="black" points="913.585,-814.839 920.651,-806.945 910.204,-808.71 913.585,-814.839"/>
</g>
<!-- node_49&#45;&gt;node_43 -->
<g id="edge111" class="edge"><title>node_49&#45;&gt;node_43</title>
<path fill="none" stroke="black" d="M614.958,-1528.02C656.112,-1472.75 788.024,-1299.7 849.43,-1268 1484.01,-940.461 1769.16,-1317.45 2446.43,-1091 2464.28,-1085.03 2482.45,-1074.73 2497.05,-1065.19"/>
<polygon fill="black" stroke="black" points="2499.31,-1067.89 2505.64,-1059.4 2495.39,-1062.09 2499.31,-1067.89"/>
</g>
<!-- node_49&#45;&gt;node_50 -->
<g id="edge112" class="edge"><title>node_49&#45;&gt;node_50</title>
<path fill="none" stroke="black" d="M540.168,-1537.61C450.177,-1523.34 285.764,-1483.06 205.43,-1374 130.419,-1272.16 182.106,-1217.31 175.43,-1091 167.725,-945.219 155.264,-900.725 206.43,-764 279.809,-567.92 448.791,-373.257 507.712,-309.057"/>
<polygon fill="black" stroke="black" points="510.436,-311.265 514.652,-301.545 505.295,-306.515 510.436,-311.265"/>
</g>
<!-- node_49&#45;&gt;node_52 -->
<g id="edge113" class="edge"><title>node_49&#45;&gt;node_52</title>
<path fill="none" stroke="black" d="M593.907,-1527.82C572.574,-1484.81 516.772,-1372.3 491.365,-1321.08"/>
<polygon fill="black" stroke="black" points="494.428,-1319.38 486.849,-1311.97 488.157,-1322.49 494.428,-1319.38"/>
</g>
<!-- node_54 -->
<g id="node45" class="node"><title>node_54</title>
<ellipse fill="none" stroke="black" cx="366.43" cy="-1294" rx="38.1938" ry="18"/>
<text text-anchor="middle" x="366.43" y="-1290.3" font-family="Times New Roman,serif" font-size="14.00">glut_2d</text>
</g>
<!-- node_49&#45;&gt;node_54 -->
<g id="edge114" class="edge"><title>node_49&#45;&gt;node_54</title>
<path fill="none" stroke="black" d="M579.088,-1528.79C539.996,-1500.76 460.467,-1439.89 408.43,-1374 395.674,-1357.85 384.871,-1337.25 377.417,-1321.14"/>
<polygon fill="black" stroke="black" points="380.501,-1319.46 373.221,-1311.77 374.112,-1322.33 380.501,-1319.46"/>
</g>
<!-- node_50&#45;&gt;node_11 -->
<g id="edge115" class="edge"><title>node_50&#45;&gt;node_11</title>
<path fill="none" stroke="black" d="M555.092,-282.724C815.398,-259.861 2900.01,-71.8042 3249.75,-39.6638"/>
<polygon fill="black" stroke="black" points="3247.32,-48.8651 3250.43,-38.7371 3241.68,-44.7141 3247.32,-48.8651"/>
</g>
<!-- node_52&#45;&gt;node_11 -->
<g id="edge116" class="edge"><title>node_52&#45;&gt;node_11</title>
<path fill="none" stroke="black" d="M412.569,-1097.69C412.169,-1095.45 411.789,-1093.22 411.43,-1091 399.36,-1016.27 397.952,-351.984 492.43,-260 697.896,-59.9584 2884.54,-37.5993 3248.28,-35.2601"/>
<polygon fill="black" stroke="black" points="3240.54,-38.9909 3250.43,-35.1966 3240.33,-31.994 3240.54,-38.9909"/>
</g>
<!-- node_53 -->
<g id="node44" class="node"><title>node_53</title>
<ellipse fill="none" stroke="black" cx="479.43" cy="-1042" rx="59.2899" ry="18"/>
<text text-anchor="middle" x="479.43" y="-1038.3" font-family="Times New Roman,serif" font-size="14.00">glut.windows</text>
</g>
<!-- node_52&#45;&gt;node_53 -->
<g id="edge117" class="edge"><title>node_52&#45;&gt;node_53</title>
<path fill="none" stroke="black" d="M474.867,-1275.82C471.151,-1233.08 471.343,-1121.7 474.933,-1070.04"/>
<polygon fill="black" stroke="black" points="478.429,-1070.22 475.75,-1059.97 471.452,-1069.66 478.429,-1070.22"/>
</g>
<!-- node_53&#45;&gt;node_1 -->
<g id="edge118" class="edge"><title>node_53&#45;&gt;node_1</title>
<path fill="none" stroke="black" d="M420.012,-1042C366.989,-1042 313.966,-1042 260.944,-1042"/>
<polygon fill="black" stroke="black" points="260.692,-1038.5 250.692,-1042 260.692,-1045.5 260.692,-1038.5"/>
</g>
<!-- node_53&#45;&gt;node_2 -->
<g id="edge119" class="edge"><title>node_53&#45;&gt;node_2</title>
<path fill="none" stroke="black" d="M468.482,-1024.21C440.47,-981.245 366.07,-867.135 332.85,-816.184"/>
<polygon fill="black" stroke="black" points="335.724,-814.184 327.331,-807.718 329.86,-818.007 335.724,-814.184"/>
</g>
<!-- node_53&#45;&gt;node_13 -->
<g id="edge120" class="edge"><title>node_53&#45;&gt;node_13</title>
<path fill="none" stroke="black" d="M536.475,-1036.98C870.681,-1013.29 2567.76,-891.228 2794.43,-839 3092.85,-770.239 3429.56,-611.904 3540.11,-557.643"/>
<polygon fill="black" stroke="black" points="3541.77,-560.727 3549.19,-553.168 3538.68,-554.448 3541.77,-560.727"/>
</g>
<!-- node_53&#45;&gt;node_17 -->
<g id="edge121" class="edge"><title>node_53&#45;&gt;node_17</title>
<path fill="none" stroke="black" d="M535.77,-1036.5C863.561,-1010.24 2513.95,-876.559 2614.43,-839 2848.37,-751.556 2853.56,-634.101 3071.43,-512 3247.42,-413.368 3330.54,-459.319 3489.43,-335 3497.71,-328.521 3505.06,-319.689 3510.92,-311.367"/>
<polygon fill="black" stroke="black" points="3513.86,-313.267 3516.47,-302.999 3508.03,-309.398 3513.86,-313.267"/>
</g>
<!-- node_53&#45;&gt;node_27 -->
<g id="edge122" class="edge"><title>node_53&#45;&gt;node_27</title>
<path fill="none" stroke="black" d="M533.971,-1034.77C579.526,-1029.61 646.193,-1022.15 704.43,-1016 1489.33,-933.086 1731.06,-1112.47 2471.43,-839 2487,-833.249 2502.36,-823.132 2514.62,-813.664"/>
<polygon fill="black" stroke="black" points="2516.97,-816.265 2522.57,-807.275 2512.58,-810.807 2516.97,-816.265"/>
</g>
<!-- node_53&#45;&gt;node_36 -->
<g id="edge123" class="edge"><title>node_53&#45;&gt;node_36</title>
<path fill="none" stroke="black" d="M498.031,-1024.63C551.254,-978.428 710.01,-845.163 860.43,-764 1049.68,-661.886 1295.25,-585.095 1402.43,-554.064"/>
<polygon fill="black" stroke="black" points="1403.41,-557.423 1412.06,-551.292 1401.48,-550.696 1403.41,-557.423"/>
</g>
<!-- node_53&#45;&gt;node_40 -->
<g id="edge124" class="edge"><title>node_53&#45;&gt;node_40</title>
<path fill="none" stroke="black" d="M501.593,-1058.79C515.799,-1068.6 534.815,-1081.17 552.43,-1091 687.287,-1166.27 855.013,-1238.9 936.469,-1272.92"/>
<polygon fill="black" stroke="black" points="935.39,-1276.26 945.967,-1276.87 938.081,-1269.8 935.39,-1276.26"/>
</g>
<!-- node_53&#45;&gt;node_50 -->
<g id="edge125" class="edge"><title>node_53&#45;&gt;node_50</title>
<path fill="none" stroke="black" d="M480.546,-1023.83C486.921,-925.734 518.736,-436.176 526.647,-314.441"/>
<polygon fill="black" stroke="black" points="530.16,-314.344 527.316,-304.138 523.175,-313.89 530.16,-314.344"/>
</g>
<!-- node_53&#45;&gt;node_52 -->
<g id="edge126" class="edge"><title>node_53&#45;&gt;node_52</title>
<path fill="none" stroke="black" d="M482.975,-1059.97C486.704,-1102.49 486.523,-1213.85 482.945,-1265.7"/>
<polygon fill="black" stroke="black" points="479.445,-1265.57 482.131,-1275.82 486.422,-1266.13 479.445,-1265.57"/>
</g>
<!-- node_53&#45;&gt;node_54 -->
<g id="edge127" class="edge"><title>node_53&#45;&gt;node_54</title>
<path fill="none" stroke="black" d="M471.725,-1060.05C452.346,-1102.92 401.478,-1215.46 378.274,-1266.8"/>
<polygon fill="black" stroke="black" points="374.949,-1265.65 374.02,-1276.21 381.328,-1268.54 374.949,-1265.65"/>
</g>
<!-- node_54&#45;&gt;node_11 -->
<g id="edge128" class="edge"><title>node_54&#45;&gt;node_11</title>
<path fill="none" stroke="black" d="M344.992,-1278.95C302.834,-1249.88 210.226,-1178.45 175.43,-1091 34.3428,-736.433 69.6289,-465.102 391.43,-260 642.158,-100.197 2880.53,-44.2307 3248.38,-36.0797"/>
<polygon fill="black" stroke="black" points="3240.86,-40.4128 3250.43,-35.8578 3240.11,-33.4534 3240.86,-40.4128"/>
</g>
<!-- node_54&#45;&gt;node_52 -->
<g id="edge129" class="edge"><title>node_54&#45;&gt;node_52</title>
<path fill="none" stroke="black" d="M404.93,-1294C405.09,-1294 405.25,-1294 405.41,-1294"/>
<polygon fill="black" stroke="black" points="402.614,-1297.5 412.614,-1294 402.614,-1290.5 402.614,-1297.5"/>
</g>
<!-- node_55 -->
<g id="node46" class="node"><title>node_55</title>
<ellipse fill="none" stroke="black" cx="1243.43" cy="-1546" rx="27" ry="18"/>
<text text-anchor="middle" x="1243.43" y="-1542.3" font-family="Times New Roman,serif" font-size="14.00">o2g</text>
</g>
<!-- node_55&#45;&gt;node_19 -->
<g id="edge130" class="edge"><title>node_55&#45;&gt;node_19</title>
<path fill="none" stroke="black" d="M1216.65,-1543.05C1142.2,-1536.01 932.549,-1504.86 846.43,-1374 802.696,-1307.54 793.051,-1074.99 846.43,-1016 1111.36,-723.221 2325.91,-1108.57 2614.43,-839 2662.11,-794.455 2669.83,-309.421 2712.43,-260 2906.88,-34.42 3068.15,-149.86 3349.43,-52 3351.98,-51.1126 3354.61,-50.1842 3357.25,-49.2385"/>
<polygon fill="black" stroke="black" points="3358.57,-52.4803 3366.78,-45.7806 3356.19,-45.8996 3358.57,-52.4803"/>
</g>
<!-- node_55&#45;&gt;node_27 -->
<g id="edge131" class="edge"><title>node_55&#45;&gt;node_27</title>
<path fill="none" stroke="black" d="M1216.41,-1543.89C1138.08,-1539.04 910.529,-1513.05 816.43,-1374 780.508,-1320.92 733.549,-1108.96 817.43,-1016 1065.06,-741.551 2125.11,-968.252 2471.43,-839 2486.98,-833.196 2502.34,-823.073 2514.6,-813.615"/>
<polygon fill="black" stroke="black" points="2516.94,-816.22 2522.56,-807.235 2512.57,-810.758 2516.94,-816.22"/>
</g>
<!-- node_55&#45;&gt;node_35 -->
<g id="edge132" class="edge"><title>node_55&#45;&gt;node_35</title>
<path fill="none" stroke="black" d="M1267.57,-1537.39C1327.46,-1517.66 1485.81,-1460.32 1593.43,-1374 1612.13,-1359 1628.83,-1337.49 1640.32,-1320.71"/>
<polygon fill="black" stroke="black" points="1643.53,-1322.2 1646.15,-1311.94 1637.7,-1318.33 1643.53,-1322.2"/>
</g>
<!-- node_55&#45;&gt;node_57 -->
<g id="edge133" class="edge"><title>node_55&#45;&gt;node_57</title>
<path fill="none" stroke="black" d="M1270.44,-1543.7C1439.49,-1535.23 2352.98,-1484.88 2606.43,-1374 2924.45,-1234.87 3047.82,-1161.81 3175.43,-839 3212.77,-744.547 3194.38,-619.923 3183.5,-565.894"/>
<polygon fill="black" stroke="black" points="3186.92,-565.131 3181.45,-556.06 3180.07,-566.564 3186.92,-565.131"/>
</g>
<!-- node_56&#45;&gt;node_57 -->
<g id="edge134" class="edge"><title>node_56&#45;&gt;node_57</title>
<path fill="none" stroke="black" d="M3142.04,-771.816C3148.52,-729.178 3165.39,-618.24 3173.26,-566.419"/>
<polygon fill="black" stroke="black" points="3176.76,-566.716 3174.8,-556.304 3169.84,-565.664 3176.76,-566.716"/>
</g>
</g>
</svg>
